# xmcd CD database file
#
# Track frame offsets:
#	150
#	19090
#	41325
#	68212
#	87792
#	110355
#	135417
#	154075
#	177247
#	195537
#	222085
#
# Disc length: 3293 seconds
#
# Revision: 7
# Processed by: cddbd v1.5.1PL2 Copyright (c) Steve Scherf et al.
# Submitted via: CDex 1.51
#
DISCID=880cdb0b
DTITLE=小曽根真 - No Strings Attached
DYEAR=1999
DGENRE=Jazz
TTITLE0=Come Fly With Three
TTITLE1=Oriental Rag
TTITLE2=Agua de la Musica
TTITLE3=La Muerte del Angel
TTITLE4=Michel
TTITLE5=In The Wee Hours
TTITLE6=Kingdom of the Drum
TTITLE7=December Dream
TTITLE8=Why Not?
TTITLE9=Sincerity
TTITLE10=No Strings Attached
EXTD=YEAR: 1999
EXTT0=
EXTT1=
EXTT2=
EXTT3=
EXTT4=
EXTT5=
EXTT6=
EXTT7=
EXTT8=
EXTT9=
EXTT10=
PLAYORDER=
